HIERARCHY
ROOT Hips
{
  OFFSET -365.558 92.1851 1491.54
  CHANNELS 6 Xposition Yposition Zposition Zrotation Xrotation Yrotation
  JOINT Spine
  {
    OFFSET -3.70037e-05 8 0.000142578
    CHANNELS 6 Xposition Yposition Zposition Zrotation Xrotation Yrotation
    JOINT Spine1
    {
      OFFSET -0.000383838 8 -0.000434482
      CHANNELS 6 Xposition Yposition Zposition Zrotation Xrotation Yrotation
      JOINT Spine2
      {
        OFFSET -0.000670503 7.99999 -0.000878141
        CHANNELS 6 Xposition Yposition Zposition Zrotation Xrotation Yrotation
        JOINT Spine3
        {
          OFFSET 0 8 0
          CHANNELS 6 Xposition Yposition Zposition Zrotation Xrotation Yrotation
          JOINT Neck
          {
            OFFSET -3.50396e-05 17 0.000138651
            CHANNELS 6 Xposition Yposition Zposition Zrotation Xrotation Yrotation
            JOINT Head
            {
              OFFSET 0.000126163 10.8 0
              CHANNELS 6 Xposition Yposition Zposition Zrotation Xrotation Yrotation
              End Site
              {
                OFFSET 0 20.25 0
              }
            }
          }
          JOINT LeftShoulder
          {
            OFFSET 4.99992 17 0.000263909
            CHANNELS 6 Xposition Yposition Zposition Zrotation Xrotation Yrotation
            JOINT LeftShoulder2
            {
              OFFSET 6.45 0 0
              CHANNELS 6 Xposition Yposition Zposition Zrotation Xrotation Yrotation
              JOINT LeftArm
              {
                OFFSET 6.45012 0.000116353 0
                CHANNELS 6 Xposition Yposition Zposition Zrotation Xrotation Yrotation
                JOINT LeftForeArm
                {
                  OFFSET 0.000168426 -32.4013 -2.00022
                  CHANNELS 6 Xposition Yposition Zposition Zrotation Xrotation Yrotation
                  JOINT LeftHand
                  {
                    OFFSET 0.00014573 -25.6498 2.00013
                    CHANNELS 6 Xposition Yposition Zposition Zrotation Xrotation Yrotation
                    JOINT LeftHandThumb1
                    {
                      OFFSET -0.502993 -1.50314 2.65507
                      CHANNELS 6 Xposition Yposition Zposition Zrotation Xrotation Yrotation
                      JOINT LeftHandThumb2
                      {
                        OFFSET 0.00616847 -3.79773 3.6896
                        CHANNELS 6 Xposition Yposition Zposition Zrotation Xrotation Yrotation
                        JOINT LeftHandThumb3
                        {
                          OFFSET 0.00299129 -2.99925 2.69472
                          CHANNELS 6 Xposition Yposition Zposition Zrotation Xrotation Yrotation
                          End Site
                          {
                            OFFSET -0.0014092 -2.29988 1.79951
                          }
                        }
                      }
                    }
                    JOINT LeftHandIndex
                    {
                      OFFSET 0.000620218 -1.89842 1.59788
                      CHANNELS 6 Xposition Yposition Zposition Zrotation Xrotation Yrotation
                      JOINT LeftHandIndex1
                      {
                        OFFSET 0.00290026 -8.29647 1.89532
                        CHANNELS 6 Xposition Yposition Zposition Zrotation Xrotation Yrotation
                        JOINT LeftHandIndex2
                        {
                          OFFSET -0.000193182 -4.50001 0
                          CHANNELS 6 Xposition Yposition Zposition Zrotation Xrotation Yrotation
                          JOINT LeftHandIndex3
                          {
                            OFFSET -0.000735175 -3.39636 -0.00554933
                            CHANNELS 6 Xposition Yposition Zposition Zrotation Xrotation Yrotation
                            End Site
                            {
                              OFFSET 2.91213e-05 -2.59978 0.00222759
                            }
                          }
                        }
                      }
                    }
                    JOINT LeftHandMiddle
                    {
                      OFFSET -0.246892 -2.19783 0.395262
                      CHANNELS 6 Xposition Yposition Zposition Zrotation Xrotation Yrotation
                      JOINT LeftHandMiddle1
                      {
                        OFFSET -0.00193411 -8.30182 1.00121
                        CHANNELS 6 Xposition Yposition Zposition Zrotation Xrotation Yrotation
                        JOINT LeftHandMiddle2
                        {
                          OFFSET 0.00105987 -4.65242 0.00393217
                          CHANNELS 6 Xposition Yposition Zposition Zrotation Xrotation Yrotation
                          JOINT LeftHandMiddle3
                          {
                            OFFSET 0.000898781 -3.29955 0.00151348
                            CHANNELS 6 Xposition Yposition Zposition Zrotation Xrotation Yrotation
                            End Site
                            {
                              OFFSET -0.00117332 -2.70102 0.000532577
                            }
                          }
                        }
                      }
                    }
                    JOINT LeftHandRing
                    {
                      OFFSET -0.501461 -2.15122 -0.797964
                      CHANNELS 6 Xposition Yposition Zposition Zrotation Xrotation Yrotation
                      JOINT LeftHandRing1
                      {
                        OFFSET -0.000682299 -7.75058 -0.198674
                        CHANNELS 6 Xposition Yposition Zposition Zrotation Xrotation Yrotation
                        JOINT LeftHandRing2
                        {
                          OFFSET -0.0030868 -3.80258 0.00554624
                          CHANNELS 6 Xposition Yposition Zposition Zrotation Xrotation Yrotation
                          JOINT LeftHandRing3
                          {
                            OFFSET -0.00127522 -3.39519 -0.00785227
                            CHANNELS 6 Xposition Yposition Zposition Zrotation Xrotation Yrotation
                            End Site
                            {
                              OFFSET -0.000725933 -2.59758 -0.000685941
                            }
                          }
                        }
                      }
                    }
                    JOINT LeftHandPinky
                    {
                      OFFSET -0.752345 -1.75114 -1.84628
                      CHANNELS 6 Xposition Yposition Zposition Zrotation Xrotation Yrotation
                      JOINT LeftHandPinky1
                      {
                        OFFSET 0.000237317 -7.15111 -1.00039
                        CHANNELS 6 Xposition Yposition Zposition Zrotation Xrotation Yrotation
                        JOINT LeftHandPinky2
                        {
                          OFFSET -0.00102246 -3.00115 0.00173514
                          CHANNELS 6 Xposition Yposition Zposition Zrotation Xrotation Yrotation
                          JOINT LeftHandPinky3
                          {
                            OFFSET -0.0027239 -2.3431 -0.0114271
                            CHANNELS 6 Xposition Yposition Zposition Zrotation Xrotation Yrotation
                            End Site
                            {
                              OFFSET 0.00318683 -2.09927 0.00401244
                            }
                          }
                        }
                      }
                    }
                  }
                }
              }
            }
          }
          JOINT RightShoulder
          {
            OFFSET -4.99997 17 4.0153e-05
            CHANNELS 6 Xposition Yposition Zposition Zrotation Xrotation Yrotation
            JOINT RightShoulder2
            {
              OFFSET -6.45 0 0
              CHANNELS 6 Xposition Yposition Zposition Zrotation Xrotation Yrotation
              JOINT RightArm
              {
                OFFSET -6.45006 -0.000138677 6.67782e-05
                CHANNELS 6 Xposition Yposition Zposition Zrotation Xrotation Yrotation
                JOINT RightForeArm
                {
                  OFFSET -2.1606e-05 -32.3987 -2.00186
                  CHANNELS 6 Xposition Yposition Zposition Zrotation Xrotation Yrotation
                  JOINT RightHand
                  {
                    OFFSET 0.00100771 -25.6499 2.00115
                    CHANNELS 6 Xposition Yposition Zposition Zrotation Xrotation Yrotation
                    JOINT RightHandThumb1
                    {
                      OFFSET 0.498102 -1.49981 2.64841
                      CHANNELS 6 Xposition Yposition Zposition Zrotation Xrotation Yrotation
                      JOINT RightHandThumb2
                      {
                        OFFSET -0.000360613 -3.80075 3.70074
                        CHANNELS 6 Xposition Yposition Zposition Zrotation Xrotation Yrotation
                        JOINT RightHandThumb3
                        {
                          OFFSET 0.00476449 -2.99904 2.6932
                          CHANNELS 6 Xposition Yposition Zposition Zrotation Xrotation Yrotation
                          End Site
                          {
                            OFFSET -0.00494545 -2.29394 1.80391
                          }
                        }
                      }
                    }
                    JOINT RightHandIndex
                    {
                      OFFSET 0.00272208 -1.89498 1.60021
                      CHANNELS 6 Xposition Yposition Zposition Zrotation Xrotation Yrotation
                      JOINT RightHandIndex1
                      {
                        OFFSET 0.000658191 -8.29885 1.89997
                        CHANNELS 6 Xposition Yposition Zposition Zrotation Xrotation Yrotation
                        JOINT RightHandIndex2
                        {
                          OFFSET -0.00197017 -4.50072 0.000166602
                          CHANNELS 6 Xposition Yposition Zposition Zrotation Xrotation Yrotation
                          JOINT RightHandIndex3
                          {
                            OFFSET -0.000717791 -3.39796 -0.00159576
                            CHANNELS 6 Xposition Yposition Zposition Zrotation Xrotation Yrotation
                            End Site
                            {
                              OFFSET 0.000755011 -2.59981 -0.000149476
                            }
                          }
                        }
                      }
                    }
                    JOINT RightHandMiddle
                    {
                      OFFSET 0.24982 -2.19919 0.399392
                      CHANNELS 6 Xposition Yposition Zposition Zrotation Xrotation Yrotation
                      JOINT RightHandMiddle1
                      {
                        OFFSET 0.00496896 -8.29982 0.998888
                        CHANNELS 6 Xposition Yposition Zposition Zrotation Xrotation Yrotation
                        JOINT RightHandMiddle2
                        {
                          OFFSET -0.000899043 -4.65053 0.000853925
                          CHANNELS 6 Xposition Yposition Zposition Zrotation Xrotation Yrotation
                          JOINT RightHandMiddle3
                          {
                            OFFSET -0.00012422 -3.29995 -0.00013271
                            CHANNELS 6 Xposition Yposition Zposition Zrotation Xrotation Yrotation
                            End Site
                            {
                              OFFSET 0.00145185 -2.69815 0.000535394
                            }
                          }
                        }
                      }
                    }
                    JOINT RightHandRing
                    {
                      OFFSET 0.500615 -2.14953 -0.801799
                      CHANNELS 6 Xposition Yposition Zposition Zrotation Xrotation Yrotation
                      JOINT RightHandRing1
                      {
                        OFFSET -0.00342806 -7.75779 -0.19714
                        CHANNELS 6 Xposition Yposition Zposition Zrotation Xrotation Yrotation
                        JOINT RightHandRing2
                        {
                          OFFSET 1.09125e-05 -3.80029 0.000275038
                          CHANNELS 6 Xposition Yposition Zposition Zrotation Xrotation Yrotation
                          JOINT RightHandRing3
                          {
                            OFFSET 0.00335292 -3.39771 -0.00356081
                            CHANNELS 6 Xposition Yposition Zposition Zrotation Xrotation Yrotation
                            End Site
                            {
                              OFFSET 0.000225045 -2.60006 -0.000346477
                            }
                          }
                        }
                      }
                    }
                    JOINT RightHandPinky
                    {
                      OFFSET 0.746046 -1.76027 -1.84814
                      CHANNELS 6 Xposition Yposition Zposition Zrotation Xrotation Yrotation
                      JOINT RightHandPinky1
                      {
                        OFFSET 9.82082e-05 -7.15037 -1.00006
                        CHANNELS 6 Xposition Yposition Zposition Zrotation Xrotation Yrotation
                        JOINT RightHandPinky2
                        {
                          OFFSET -0.00206587 -3.00024 0.000458012
                          CHANNELS 6 Xposition Yposition Zposition Zrotation Xrotation Yrotation
                          JOINT RightHandPinky3
                          {
                            OFFSET 0.000534325 -2.35009 -0.000321885
                            CHANNELS 6 Xposition Yposition Zposition Zrotation Xrotation Yrotation
                            End Site
                            {
                              OFFSET 0.000718669 -2.09958 -0.000171472
                            }
                          }
                        }
                      }
                    }
                  }
                }
              }
            }
          }
        }
      }
    }
  }
  JOINT LeftUpLeg
  {
    OFFSET 8 0 0
    CHANNELS 6 Xposition Yposition Zposition Zrotation Xrotation Yrotation
    JOINT LeftLeg
    {
      OFFSET -1.42518e-05 -45 -1.00001
      CHANNELS 6 Xposition Yposition Zposition Zrotation Xrotation Yrotation
      JOINT LeftFoot
      {
        OFFSET 0.00111989 -41.0002 -1.99853
        CHANNELS 6 Xposition Yposition Zposition Zrotation Xrotation Yrotation
        JOINT LeftToeBase
        {
          OFFSET 0.00147796 -7.49994 12.5011
          CHANNELS 6 Xposition Yposition Zposition Zrotation Xrotation Yrotation
          JOINT LeftFootToe
          {
            OFFSET 0 0 4
            CHANNELS 6 Xposition Yposition Zposition Zrotation Xrotation Yrotation
            End Site
            {
              OFFSET 0 0 0
            }
          }
        }
      }
    }
  }
  JOINT RightUpLeg
  {
    OFFSET -8 0 0
    CHANNELS 6 Xposition Yposition Zposition Zrotation Xrotation Yrotation
    JOINT RightLeg
    {
      OFFSET -0.00235364 -44.9917 -0.998786
      CHANNELS 6 Xposition Yposition Zposition Zrotation Xrotation Yrotation
      JOINT RightFoot
      {
        OFFSET 0.00176636 -41.005 -1.99951
        CHANNELS 6 Xposition Yposition Zposition Zrotation Xrotation Yrotation
        JOINT RightToeBase
        {
          OFFSET 0 -7.50008 12.5001
          CHANNELS 6 Xposition Yposition Zposition Zrotation Xrotation Yrotation
          JOINT RightFootToe
          {
            OFFSET 0 0 4
            CHANNELS 6 Xposition Yposition Zposition Zrotation Xrotation Yrotation
            End Site
            {
              OFFSET 0 0 0
            }
          }
        }
      }
    }
  }
}
MOTION
Frames:	3
Frame Time:	0.0111111
-343.01 91.6336 1492.71 2.72261 5.459 -116.622 0 8 0 4.51233 9.67442 18.3924 2.27374e-13 8 -1.13687e-13 0.446896 6.9299 5.90958 2.27374e-13 8 1.13687e-13 0.313099 3.46442 2.96098 2.27374e-13 8 1.7053e-13 0.311589 3.45408 2.95198 2.27374e-13 17 -5.68434e-14 -0.00378943 -5.70863 9.27239 2.27374e-13 10.8 0 1.46442 -13.3071 22.0365 5 17 1.13687e-13 1.59348 -5.02181 14.9964 6.45 2.84217e-14 0 -1.08128 -1.35303 -5.5277 6.45 -8.52651e-14 -1.13687e-13 -59.3507 -76.7177 -64.4459 -2.27374e-13 -32.4 -2 -17.7068 -9.04127 9.05529 -2.27374e-13 -25.65 2 27.8766 17.7506 -2.58731 -0.5 -1.5 2.65 -4.06691 -17.7433 21.5055 0 -3.8 3.7 9.45977 19.3662 4.13227 0 -3 2.7 0.0747257 42.9691 -0.125636 2.27374e-13 -1.9 1.6 -1.23398e-06 2.1232e-06 1.15618e-06 -2.27374e-13 -8.3 1.9 -2.18214 -9.59726 -0.232856 4.54747e-13 -4.5 -1.13687e-13 -0.0817876 0.00546111 -0.0273107 0 -3.4 0 -0.0106784 0.00802459 -0.0267598 -0.25 -2.2 0.4 -1.23398e-06 2.1232e-06 1.15618e-06 0 -8.3 1 -7.40546 4.64614 0.587429 0 -4.65 1.13687e-13 -85.3653 -0.00172846 -0.00652319 0 -3.3 2.27374e-13 -90.0002 2.14499e-06 -3.02821e-05 -0.5 -2.15 -0.8 -1.23398e-06 2.1232e-06 1.15618e-06 0 -7.75 -0.2 -30.012 11.7157 4.50244 0 -3.8 -5.68434e-14 -8.27147 0.00363022 -0.00138976 2.27374e-13 -3.4 -2.84217e-13 -63.2772 0.00283951 0.00466889 -0.75 -1.75 -1.85 -1.23398e-06 2.1232e-06 1.15618e-06 -2.27374e-13 -7.15 -1 -47.1429 13.2697 8.70547 0 -3 0 -0.568421 -0.0025935 -0.00562207 0 -2.35 0 -0.465159 0.00320395 -0.0103122 -5 17 -1.13687e-13 -4.47185 -3.95508 7.38809 -6.45 -8.52651e-14 -2.27374e-13 -1.2295 0.576504 -2.47361 -6.45 0 0 -24.2319 -58.9454 3.02839 -2.27374e-13 -32.4 -2 -4.59771 -49.8589 1.31475 0 -25.65 2 -48.1583 6.21219 62.5069 0.5 -1.5 2.65 80.8607 34.823 132.485 -2.27374e-13 -3.8 3.7 -1.03031 1.87517 -1.04644 -2.27374e-13 -3 2.7 0.0231671 24.7436 -0.0269311 4.9738e-14 -1.9 1.6 -4.28453e-06 6.22887e-06 -5.38343e-06 5.68434e-14 -8.3 1.9 1.36821 -9.73302 0.0657679 0 -4.5 2.27374e-13 0.0134023 0.00185682 0.00115083 4.40536e-13 -3.4 2.27374e-13 0.000589191 0.00196448 0.00121826 0.25 -2.2 0.4 -4.28453e-06 6.22887e-06 -5.38343e-06 -6.03961e-14 -8.3 1 0.852741 1.60898 -0.0757749 -7.10543e-15 -4.65 0 44.0627 26.9497 2.83048 5.68434e-14 -3.3 -2.27374e-13 40.1243 -0.160771 0.102796 0.5 -2.15 -0.8 -4.28453e-06 6.22887e-06 -5.38343e-06 5.68434e-14 -7.75 -0.2 2.72034 9.54539 -0.479026 2.41585e-13 -3.8 2.27374e-13 18.7962 43.0386 22.74 8.52651e-14 -3.4 0 56.7058 0.0104321 0.120434 0.75 -1.75 -1.85 -4.28453e-06 6.22887e-06 -5.38343e-06 5.32907e-14 -7.15 -1 21.8842 25.6479 -6.84315 -5.68434e-14 -3 -2.27374e-13 20.8389 14.0315 1.12564 0 -2.35 -2.27374e-13 21.6617 -0.0103769 0.0236799 8 0 5.68434e-14 41.7243 -18.7309 35.175 0 -45 -1 -25.6685 20.5879 9.61444 -2.27374e-13 -41 -2 4.80043 2.62269 -1.27926 0 -7.5 12.5 -6.61318e-05 7.02327e-06 0.0103903 -2.27374e-13 -1.42109e-14 4 -1.74022 -3.26301 -4.233 -8 0 0 14.5613 -23.5585 -55.2709 1.13687e-13 -45 -1 -44.7586 -2.0336 9.7022 0 -41 -2 28.5283 5.86523 -19.0226 -2.84217e-14 -7.5 12.5 7.59765e-05 0.0768569 -0.000786749 2.84217e-14 0 4 0.73426 0.438823 120.036 
-342.985 91.5633 1492.7 2.71939 5.46082 -116.591 2.27374e-13 8 0 4.54502 9.64333 18.3057 2.27374e-13 8 -1.42109e-13 0.468511 6.94082 5.89548 0 8 5.68434e-14 0.32388 3.46962 2.95421 2.27374e-13 8 1.7053e-13 0.323203 3.45882 2.94452 0 17 0 -0.00641553 -5.72099 9.28432 2.27374e-13 10.8 0 1.46295 -13.3366 22.066 5 17 5.68434e-14 1.67326 -5.01243 14.9964 6.45 -5.68434e-14 0 -1.06468 -1.35338 -5.4992 6.45 -8.52651e-14 0 -60.4541 -76.8212 -65.5742 0 -32.4 -2 -17.4131 -8.74788 9.07709 2.27374e-13 -25.65 2 28.7767 17.7127 -2.65995 -0.5 -1.5 2.65 -4.37484 -17.528 21.2819 -2.27374e-13 -3.8 3.7 9.74875 19.8556 4.1402 2.27374e-13 -3 2.7 0.0761781 41.5518 -0.131293 2.27374e-13 -1.9 1.6 -1.23398e-06 2.1232e-06 1.15618e-06 0 -8.3 1.9 -2.23609 -9.79605 -0.238211 2.27374e-13 -4.5 0 -0.104133 0.00546111 -0.0301934 -2.27374e-13 -3.4 0 -0.0329501 0.00802459 -0.0295909 -0.25 -2.2 0.4 -1.23398e-06 2.1232e-06 1.15618e-06 0 -8.3 1 -7.3909 4.49666 0.57465 0 -4.65 1.13687e-13 -85.6301 -0.00172846 -0.00652319 0 -3.3 3.41061e-13 -90.0002 2.14499e-06 -3.02821e-05 -0.5 -2.15 -0.8 -1.23398e-06 2.1232e-06 1.15618e-06 0 -7.75 -0.2 -30.1797 11.4212 4.43794 0 -3.8 0 -8.23679 0.00363022 -0.00138976 2.27374e-13 -3.4 -2.84217e-13 -63.2534 0.00283951 0.00466889 -0.75 -1.75 -1.85 -1.23398e-06 2.1232e-06 1.15618e-06 -2.27374e-13 -7.15 -1 -47.0877 12.9488 8.53803 -2.27374e-13 -3 0 -0.805162 -0.0025935 -0.00562207 -2.27374e-13 -2.35 -5.68434e-14 -0.692742 0.00320395 -0.0103122 -5 17 -5.68434e-14 -4.43193 -3.97127 7.31466 -6.45 -5.68434e-14 -2.27374e-13 -1.23036 0.576995 -2.48452 -6.45 -5.68434e-14 -1.13687e-13 -23.9891 -59.1274 3.27502 0 -32.4 -2 -4.73246 -49.5533 0.905796 0 -25.65 2 -48.394 5.95164 62.4385 0.5 -1.5 2.65 80.7243 35.2261 132.805 -2.27374e-13 -3.8 3.7 -1.03031 1.87517 -1.04644 -2.27374e-13 -3 2.7 0.023199 24.8053 -0.0269444 6.39488e-14 -1.9 1.6 -4.28453e-06 6.22887e-06 -5.38343e-06 6.39488e-14 -8.3 1.9 1.30188 -9.49598 0.0619344 0 -4.5 0 0.0134023 0.00185682 0.00115083 4.33431e-13 -3.4 -2.27374e-13 0.000589191 0.00196448 0.00121826 0.25 -2.2 0.4 -4.28453e-06 6.22887e-06 -5.38343e-06 -5.32907e-14 -8.3 1 0.884147 2.02049 -0.0791723 7.10543e-15 -4.65 0 46.5003 31.1301 3.99896 0 -3.3 0 44.0796 -0.142007 0.130056 0.5 -2.15 -0.8 -4.28453e-06 6.22887e-06 -5.38343e-06 4.9738e-14 -7.75 -0.2 2.93624 9.54613 -0.503606 2.27374e-13 -3.8 2.27374e-13 16.5328 44.8707 26.4538 8.52651e-14 -3.4 0 60.8904 -0.0118251 0.160946 0.75 -1.75 -1.85 -4.28453e-06 6.22887e-06 -5.38343e-06 4.26326e-14 -7.15 -1 23.005 25.3326 -7.05639 0 -3 0 23.713 16.5137 1.57932 1.13687e-13 -2.35 0 24.565 0.00777058 0.0353889 8 0 5.68434e-14 41.7555 -18.7448 35.2472 0 -45 -1 -25.6737 20.5949 9.57502 0 -41 -2 4.86919 2.99546 -1.29459 -2.27374e-13 -7.5 12.5 -6.61318e-05 7.02327e-06 0.0103903 0 0 4 -1.63246 -3.64595 -4.26353 -8 0 -5.68434e-14 14.4355 -23.8114 -55.2721 0 -45 -1 -45.0236 -1.54914 9.85008 0 -41 -2 28.5934 5.59643 -18.883 -5.68434e-14 -7.5 12.5 7.59765e-05 0.0768569 -0.000786749 -5.68434e-14 0 4 0.737658 0.503249 120.025 
-342.96 91.5032 1492.68 2.71634 5.4624 -116.563 2.27374e-13 8 0 4.56792 9.61289 18.2322 0 8 -1.42109e-13 0.489513 6.9494 5.87888 2.27374e-13 8 1.7053e-13 0.334298 3.47381 2.94613 2.27374e-13 8 5.68434e-14 0.333946 3.46285 2.93622 0 17 -1.13687e-13 -0.00342448 -5.73425 9.28348 2.27374e-13 10.8 -1.13687e-13 1.47142 -13.3669 22.0656 5 17 5.68434e-14 1.75011 -5.00762 14.9816 6.45 0 0 -1.04804 -1.35368 -5.46636 6.45 -1.13687e-13 0 -61.5001 -76.9129 -66.5971 -2.27374e-13 -32.4 -2 -17.1088 -8.44664 9.08534 0 -25.65 2 29.7046 17.6384 -2.70159 -0.5 -1.5 2.65 -4.76489 -17.3093 20.9825 -2.27374e-13 -3.8 3.7 10.0561 20.363 4.14189 -2.27374e-13 -3 2.7 0.0743352 39.9782 -0.132675 2.27374e-13 -1.9 1.6 -1.23398e-06 2.1232e-06 1.15618e-06 0 -8.3 1.9 -2.2741 -9.93049 -0.241323 4.54747e-13 -4.5 5.68434e-14 -0.131216 0.00546111 -0.0329972 -2.27374e-13 -3.4 0 -0.0603558 0.00802459 -0.0323209 -0.25 -2.2 0.4 -1.23398e-06 2.1232e-06 1.15618e-06 0 -8.3 1 -7.36948 4.44099 0.568584 0 -4.65 5.68434e-14 -85.989 -0.00172846 -0.00652319 0 -3.3 2.84217e-13 -90.0002 2.14499e-06 -3.02821e-05 -0.5 -2.15 -0.8 -1.23398e-06 2.1232e-06 1.15618e-06 -2.27374e-13 -7.75 -0.2 -30.3764 11.1765 4.39111 0 -3.8 -5.68434e-14 -8.33223 0.00363022 -0.00138976 0 -3.4 -2.27374e-13 -63.3342 0.00283951 0.00466889 -0.75 -1.75 -1.85 -1.23398e-06 2.1232e-06 1.15618e-06 0 -7.15 -1 -47.0405 12.6406 8.37847 2.27374e-13 -3 0 -1.15147 -0.0025935 -0.00562207 -2.27374e-13 -2.35 0 -1.02366 0.00320395 -0.0103122 -5 17 -5.68434e-14 -4.39328 -3.98614 7.24485 -6.45 -5.68434e-14 -2.27374e-13 -1.23101 0.578301 -2.49984 -6.45 -2.84217e-14 -1.13687e-13 -23.9993 -59.3384 3.39195 0 -32.4 -2 -4.74097 -49.2157 0.456554 2.27374e-13 -25.65 2 -48.5545 5.76398 62.1708 0.5 -1.5 2.65 80.3655 35.791 133.08 0 -3.8 3.7 -1.03031 1.87517 -1.04644 -2.27374e-13 -3 2.7 0.0232069 24.8206 -0.0269478 4.26326e-14 -1.9 1.6 -4.28453e-06 6.22887e-06 -5.38343e-06 4.9738e-14 -8.3 1.9 1.22833 -9.25662 0.0553255 0 -4.5 0 0.0134023 0.00185682 0.00115083 4.61853e-13 -3.4 2.27374e-13 0.000589191 0.00196448 0.00121826 0.25 -2.2 0.4 -4.28453e-06 6.22887e-06 -5.38343e-06 -4.9738e-14 -8.3 1 1.2343 2.37853 -0.11131 7.10543e-15 -4.65 0 47.9545 35.9738 5.71283 5.68434e-14 -3.3 -2.27374e-13 48.2006 -0.0881219 0.116979 0.5 -2.15 -0.8 -4.28453e-06 6.22887e-06 -5.38343e-06 6.39488e-14 -7.75 -0.2 3.99123 9.97314 -0.659973 2.13163e-13 -3.8 0 13.9125 46.3415 30.3884 8.52651e-14 -3.4 0 65.3497 -0.0252725 0.188615 0.75 -1.75 -1.85 -4.28453e-06 6.22887e-06 -5.38343e-06 4.9738e-14 -7.15 -1 24.2778 24.8505 -7.26358 5.68434e-14 -3 2.27374e-13 26.3536 19.1767 2.15769 0 -2.35 0 27.3773 0.0303331 0.0244186 8 0 5.68434e-14 41.7852 -18.769 35.2891 2.27374e-13 -45 -1 -25.6857 20.6214 9.53996 0 -41 -2 4.93928 3.37804 -1.27362 -2.27374e-13 -7.5 12.5 -6.61318e-05 7.02327e-06 0.0103903 0 0 4 -1.5369 -4.03246 -4.29274 -8 2.84217e-14 -1.13687e-13 14.3226 -24.0272 -55.2969 -1.13687e-13 -45 -1 -45.2417 -1.13883 9.97909 0 -41 -2 28.6394 5.36506 -18.766 5.68434e-14 -7.5 12.5 7.59765e-05 0.0768569 -0.000786749 -2.84217e-14 0 4 0.743449 0.563801 120.025 
